<mxfile host="Electron" modified="2023-10-11T16:46:02.784Z" agent="Mozilla/5.0 (Windows NT 10.0; Win64; x64) AppleWebKit/537.36 (KHTML, like Gecko) draw.io/22.0.2 Chrome/114.0.5735.289 Electron/25.8.4 Safari/537.36" etag="aXCoVySwpg-If9gn_5mY" version="22.0.2" type="device">
  <diagram name="Page-1" id="uHUrfIVvx9b2arXOunB7">
    <mxGraphModel dx="468" dy="269" grid="1" gridSize="10" guides="1" tooltips="1" connect="1" arrows="1" fold="1" page="1" pageScale="1" pageWidth="850" pageHeight="1100" math="1" shadow="0">
      <root>
        <mxCell id="0" />
        <mxCell id="1" parent="0" />
        <mxCell id="SExNB5dA6j3z0pkPh154-30" value="" style="endArrow=oval;html=1;rounded=0;exitX=0.05;exitY=0;exitDx=0;exitDy=0;exitPerimeter=0;strokeColor=#F0F0F0;startArrow=none;startFill=0;endFill=1;" parent="1" edge="1">
          <mxGeometry width="50" height="50" relative="1" as="geometry">
            <mxPoint x="301.83" y="640" as="sourcePoint" />
            <mxPoint x="301.83" y="560" as="targetPoint" />
          </mxGeometry>
        </mxCell>
        <mxCell id="jRbW4b_myETGWLnF5Oeu-6" value="" style="endArrow=none;html=1;rounded=0;exitX=0;exitY=0.75;exitDx=0;exitDy=0;exitPerimeter=0;strokeColor=#88C0D0;" parent="1" edge="1">
          <mxGeometry width="50" height="50" relative="1" as="geometry">
            <mxPoint x="259.99500000000006" y="319.2549999999999" as="sourcePoint" />
            <mxPoint x="260" y="240" as="targetPoint" />
          </mxGeometry>
        </mxCell>
        <mxCell id="jRbW4b_myETGWLnF5Oeu-8" value="" style="endArrow=none;html=1;rounded=0;exitX=0;exitY=0.75;exitDx=0;exitDy=0;exitPerimeter=0;strokeColor=#88C0D0;" parent="1" edge="1">
          <mxGeometry width="50" height="50" relative="1" as="geometry">
            <mxPoint x="299.99499999999995" y="320.0049999999999" as="sourcePoint" />
            <mxPoint x="300" y="240" as="targetPoint" />
          </mxGeometry>
        </mxCell>
        <mxCell id="jRbW4b_myETGWLnF5Oeu-10" value="" style="endArrow=none;html=1;rounded=0;exitX=0;exitY=0.75;exitDx=0;exitDy=0;exitPerimeter=0;strokeColor=#88C0D0;" parent="1" edge="1">
          <mxGeometry width="50" height="50" relative="1" as="geometry">
            <mxPoint x="340.00499999999994" y="320.0049999999999" as="sourcePoint" />
            <mxPoint x="340" y="240" as="targetPoint" />
          </mxGeometry>
        </mxCell>
        <mxCell id="jRbW4b_myETGWLnF5Oeu-12" value="" style="endArrow=none;html=1;rounded=0;exitX=0;exitY=0.75;exitDx=0;exitDy=0;exitPerimeter=0;strokeColor=#88C0D0;" parent="1" edge="1">
          <mxGeometry width="50" height="50" relative="1" as="geometry">
            <mxPoint x="379.99500000000006" y="320.0049999999999" as="sourcePoint" />
            <mxPoint x="380" y="240" as="targetPoint" />
          </mxGeometry>
        </mxCell>
        <mxCell id="jRbW4b_myETGWLnF5Oeu-14" value="" style="endArrow=none;html=1;rounded=0;strokeColor=#81A1C1;" parent="1" edge="1">
          <mxGeometry width="50" height="50" relative="1" as="geometry">
            <mxPoint x="620" y="320" as="sourcePoint" />
            <mxPoint x="620" y="240" as="targetPoint" />
          </mxGeometry>
        </mxCell>
        <mxCell id="jRbW4b_myETGWLnF5Oeu-15" value="" style="endArrow=none;html=1;rounded=0;strokeColor=#81A1C1;" parent="1" edge="1">
          <mxGeometry width="50" height="50" relative="1" as="geometry">
            <mxPoint x="580" y="330" as="sourcePoint" />
            <mxPoint x="580" y="240" as="targetPoint" />
          </mxGeometry>
        </mxCell>
        <mxCell id="jRbW4b_myETGWLnF5Oeu-16" value="" style="endArrow=none;html=1;rounded=0;strokeColor=#81A1C1;" parent="1" edge="1">
          <mxGeometry width="50" height="50" relative="1" as="geometry">
            <mxPoint x="540" y="320" as="sourcePoint" />
            <mxPoint x="540" y="240" as="targetPoint" />
          </mxGeometry>
        </mxCell>
        <mxCell id="jRbW4b_myETGWLnF5Oeu-17" value="" style="endArrow=none;html=1;rounded=0;strokeColor=#81A1C1;" parent="1" edge="1">
          <mxGeometry width="50" height="50" relative="1" as="geometry">
            <mxPoint x="500" y="320" as="sourcePoint" />
            <mxPoint x="500" y="240" as="targetPoint" />
          </mxGeometry>
        </mxCell>
        <mxCell id="jRbW4b_myETGWLnF5Oeu-22" value="$$&lt;br&gt;\text{PA}\,1&lt;br&gt;$$" style="rounded=0;whiteSpace=wrap;html=1;" parent="1" vertex="1">
          <mxGeometry x="240" y="320" width="400" height="80" as="geometry" />
        </mxCell>
        <mxCell id="jRbW4b_myETGWLnF5Oeu-30" value="" style="edgeStyle=orthogonalEdgeStyle;rounded=0;orthogonalLoop=1;jettySize=auto;html=1;endArrow=none;endFill=0;strokeColor=#BF616A;" parent="1" edge="1">
          <mxGeometry relative="1" as="geometry">
            <mxPoint x="380" y="400" as="sourcePoint" />
            <mxPoint x="500" y="640" as="targetPoint" />
            <Array as="points">
              <mxPoint x="380" y="540" />
              <mxPoint x="500" y="540" />
            </Array>
          </mxGeometry>
        </mxCell>
        <mxCell id="jRbW4b_myETGWLnF5Oeu-43" value="$$&lt;br&gt;Ch_1&lt;br&gt;$$" style="text;html=1;align=center;verticalAlign=middle;resizable=0;points=[];autosize=1;strokeColor=none;fillColor=none;fontColor=#8fbcbb;" parent="1" vertex="1">
          <mxGeometry x="182" y="320" width="50" height="60" as="geometry" />
        </mxCell>
        <mxCell id="jRbW4b_myETGWLnF5Oeu-45" value="$$&lt;br&gt;Z_3&lt;br&gt;$$" style="text;html=1;align=center;verticalAlign=middle;resizable=0;points=[];autosize=1;strokeColor=none;fillColor=none;fontColor=#BF616A;" parent="1" vertex="1">
          <mxGeometry x="360" y="360" width="40" height="60" as="geometry" />
        </mxCell>
        <mxCell id="jRbW4b_myETGWLnF5Oeu-46" value="$$&lt;br&gt;Z_2&lt;br&gt;$$" style="text;html=1;align=center;verticalAlign=middle;resizable=0;points=[];autosize=1;strokeColor=none;fillColor=none;fontColor=#A3BE8C;" parent="1" vertex="1">
          <mxGeometry x="400" y="360" width="40" height="60" as="geometry" />
        </mxCell>
        <mxCell id="jRbW4b_myETGWLnF5Oeu-47" value="$$&lt;br&gt;Z_1&lt;br&gt;$$" style="text;html=1;align=center;verticalAlign=middle;resizable=0;points=[];autosize=1;strokeColor=none;fillColor=none;fontColor=#B48EAD;" parent="1" vertex="1">
          <mxGeometry x="440" y="360" width="40" height="60" as="geometry" />
        </mxCell>
        <mxCell id="jRbW4b_myETGWLnF5Oeu-48" value="$$&lt;br&gt;Z_0&lt;br&gt;$$" style="text;html=1;align=center;verticalAlign=middle;resizable=0;points=[];autosize=1;strokeColor=none;fillColor=none;fontColor=#EBCB8B;" parent="1" vertex="1">
          <mxGeometry x="481" y="360" width="40" height="60" as="geometry" />
        </mxCell>
        <mxCell id="jRbW4b_myETGWLnF5Oeu-55" value="$$&lt;br&gt;in2_3&lt;br&gt;$$" style="text;html=1;align=center;verticalAlign=middle;resizable=0;points=[];autosize=1;strokeColor=none;fillColor=none;fontColor=#88C0D0;" parent="1" vertex="1">
          <mxGeometry x="237" y="200" width="50" height="60" as="geometry" />
        </mxCell>
        <mxCell id="jRbW4b_myETGWLnF5Oeu-56" value="$$&lt;br&gt;in2_2&lt;br&gt;$$" style="text;html=1;align=center;verticalAlign=middle;resizable=0;points=[];autosize=1;strokeColor=none;fillColor=none;fontColor=#88C0D0;" parent="1" vertex="1">
          <mxGeometry x="277" y="200" width="50" height="60" as="geometry" />
        </mxCell>
        <mxCell id="jRbW4b_myETGWLnF5Oeu-57" value="$$&lt;br&gt;in2_1&lt;br&gt;$$" style="text;html=1;align=center;verticalAlign=middle;resizable=0;points=[];autosize=1;strokeColor=none;fillColor=none;fontColor=#88C0D0;" parent="1" vertex="1">
          <mxGeometry x="317" y="200" width="50" height="60" as="geometry" />
        </mxCell>
        <mxCell id="jRbW4b_myETGWLnF5Oeu-58" value="$$&lt;br&gt;in2_0&lt;br&gt;$$" style="text;html=1;align=center;verticalAlign=middle;resizable=0;points=[];autosize=1;strokeColor=none;fillColor=none;fontColor=#88C0D0;" parent="1" vertex="1">
          <mxGeometry x="356.99999999999994" y="200" width="50" height="60" as="geometry" />
        </mxCell>
        <mxCell id="jRbW4b_myETGWLnF5Oeu-59" value="$$&lt;br&gt;in1_3&lt;br&gt;$$" style="text;html=1;align=center;verticalAlign=middle;resizable=0;points=[];autosize=1;strokeColor=none;fillColor=none;fontColor=#81A1C1;" parent="1" vertex="1">
          <mxGeometry x="476" y="200" width="50" height="60" as="geometry" />
        </mxCell>
        <mxCell id="jRbW4b_myETGWLnF5Oeu-60" value="$$&lt;br&gt;in1_2&lt;br&gt;$$" style="text;html=1;align=center;verticalAlign=middle;resizable=0;points=[];autosize=1;strokeColor=none;fillColor=none;fontColor=#81A1C1;" parent="1" vertex="1">
          <mxGeometry x="516" y="200" width="50" height="60" as="geometry" />
        </mxCell>
        <mxCell id="jRbW4b_myETGWLnF5Oeu-61" value="$$&lt;br&gt;in1_1&lt;br&gt;$$" style="text;html=1;align=center;verticalAlign=middle;resizable=0;points=[];autosize=1;strokeColor=none;fillColor=none;fontColor=#81A1C1;" parent="1" vertex="1">
          <mxGeometry x="556" y="200" width="50" height="60" as="geometry" />
        </mxCell>
        <mxCell id="jRbW4b_myETGWLnF5Oeu-62" value="$$&lt;br&gt;in1_0&lt;br&gt;$$" style="text;html=1;align=center;verticalAlign=middle;resizable=0;points=[];autosize=1;strokeColor=none;fillColor=none;fontColor=#81A1C1;" parent="1" vertex="1">
          <mxGeometry x="596" y="200" width="50" height="60" as="geometry" />
        </mxCell>
        <mxCell id="SExNB5dA6j3z0pkPh154-3" value="" style="edgeStyle=orthogonalEdgeStyle;rounded=0;orthogonalLoop=1;jettySize=auto;html=1;endArrow=none;endFill=0;strokeColor=#A3BE8C;entryX=0.5;entryY=0.667;entryDx=0;entryDy=0;entryPerimeter=0;" parent="1" target="jRbW4b_myETGWLnF5Oeu-46" edge="1">
          <mxGeometry relative="1" as="geometry">
            <mxPoint x="540" y="640" as="sourcePoint" />
            <mxPoint x="415" y="470" as="targetPoint" />
            <Array as="points">
              <mxPoint x="540" y="520" />
              <mxPoint x="420" y="520" />
            </Array>
          </mxGeometry>
        </mxCell>
        <mxCell id="SExNB5dA6j3z0pkPh154-4" style="edgeStyle=orthogonalEdgeStyle;rounded=0;orthogonalLoop=1;jettySize=auto;html=1;entryX=0.5;entryY=0.667;entryDx=0;entryDy=0;endArrow=none;endFill=0;strokeColor=#B48EAD;entryPerimeter=0;" parent="1" target="jRbW4b_myETGWLnF5Oeu-47" edge="1">
          <mxGeometry relative="1" as="geometry">
            <mxPoint x="580" y="640" as="sourcePoint" />
            <mxPoint x="500" y="470" as="targetPoint" />
            <Array as="points">
              <mxPoint x="580" y="500" />
              <mxPoint x="460" y="500" />
            </Array>
          </mxGeometry>
        </mxCell>
        <mxCell id="SExNB5dA6j3z0pkPh154-5" style="edgeStyle=orthogonalEdgeStyle;rounded=0;orthogonalLoop=1;jettySize=auto;html=1;entryX=0.5;entryY=0.667;entryDx=0;entryDy=0;endArrow=none;endFill=0;strokeColor=#EBCB8B;entryPerimeter=0;" parent="1" edge="1">
          <mxGeometry relative="1" as="geometry">
            <mxPoint x="620" y="640" as="sourcePoint" />
            <mxPoint x="500" y="400" as="targetPoint" />
            <Array as="points">
              <mxPoint x="620" y="480" />
              <mxPoint x="500" y="480" />
            </Array>
          </mxGeometry>
        </mxCell>
        <mxCell id="SExNB5dA6j3z0pkPh154-6" value="$$&lt;br&gt;\text{PA}\,2&lt;br&gt;$$" style="rounded=0;whiteSpace=wrap;html=1;" parent="1" vertex="1">
          <mxGeometry x="240" y="640" width="400" height="80" as="geometry" />
        </mxCell>
        <mxCell id="SExNB5dA6j3z0pkPh154-7" value="$$&lt;br&gt;S_3&lt;br&gt;$$" style="text;html=1;align=center;verticalAlign=middle;resizable=0;points=[];autosize=1;strokeColor=none;fillColor=none;fontColor=#F0F0F0;" parent="1" vertex="1">
          <mxGeometry x="360" y="680" width="40" height="60" as="geometry" />
        </mxCell>
        <mxCell id="SExNB5dA6j3z0pkPh154-8" value="$$&lt;br&gt;S_2&lt;br&gt;$$" style="text;html=1;align=center;verticalAlign=middle;resizable=0;points=[];autosize=1;strokeColor=none;fillColor=none;fontColor=#F0F0F0;" parent="1" vertex="1">
          <mxGeometry x="400" y="680" width="40" height="60" as="geometry" />
        </mxCell>
        <mxCell id="SExNB5dA6j3z0pkPh154-9" value="$$&lt;br&gt;S_1&lt;br&gt;$$" style="text;html=1;align=center;verticalAlign=middle;resizable=0;points=[];autosize=1;strokeColor=none;fillColor=none;fontColor=#F0F0F0;" parent="1" vertex="1">
          <mxGeometry x="440" y="680" width="40" height="60" as="geometry" />
        </mxCell>
        <mxCell id="SExNB5dA6j3z0pkPh154-10" value="$$&lt;br&gt;S_0&lt;br&gt;$$" style="text;html=1;align=center;verticalAlign=middle;resizable=0;points=[];autosize=1;strokeColor=none;fillColor=none;fontColor=#F0F0F0;" parent="1" vertex="1">
          <mxGeometry x="481" y="680" width="40" height="60" as="geometry" />
        </mxCell>
        <mxCell id="SExNB5dA6j3z0pkPh154-20" style="edgeStyle=orthogonalEdgeStyle;rounded=0;orthogonalLoop=1;jettySize=auto;html=1;endArrow=oval;endFill=1;strokeColor=#A3BE8C;exitX=0;exitY=0.25;exitDx=0;exitDy=0;exitPerimeter=0;" parent="1" source="SExNB5dA6j3z0pkPh154-11" edge="1">
          <mxGeometry relative="1" as="geometry">
            <mxPoint x="420" y="450" as="targetPoint" />
            <mxPoint x="290" y="450" as="sourcePoint" />
          </mxGeometry>
        </mxCell>
        <mxCell id="SExNB5dA6j3z0pkPh154-11" value="$$&lt;br&gt;A1&lt;br&gt;$$" style="verticalLabelPosition=middle;shadow=0;dashed=0;align=center;html=1;verticalAlign=middle;shape=mxgraph.electrical.logic_gates.logic_gate;operation=and;rotation=0;connectable=1;allowArrows=1;numInputs=2;noLabel=0;labelPadding=0;direction=west;labelPosition=center;perimeter=trianglePerimeter;" parent="1" vertex="1">
          <mxGeometry x="200" y="420" width="72" height="40" as="geometry" />
        </mxCell>
        <mxCell id="SExNB5dA6j3z0pkPh154-13" style="edgeStyle=orthogonalEdgeStyle;rounded=0;orthogonalLoop=1;jettySize=auto;html=1;exitX=0;exitY=0.5;exitDx=0;exitDy=0;entryX=0;entryY=0.75;entryDx=0;entryDy=0;entryPerimeter=0;strokeColor=#8FBCBB;endArrow=none;endFill=0;" parent="1" source="jRbW4b_myETGWLnF5Oeu-22" target="SExNB5dA6j3z0pkPh154-12" edge="1">
          <mxGeometry relative="1" as="geometry" />
        </mxCell>
        <mxCell id="SExNB5dA6j3z0pkPh154-14" style="edgeStyle=orthogonalEdgeStyle;rounded=0;orthogonalLoop=1;jettySize=auto;html=1;exitX=1;exitY=0.5;exitDx=0;exitDy=0;exitPerimeter=0;entryX=0.241;entryY=0.492;entryDx=0;entryDy=0;entryPerimeter=0;endArrow=none;endFill=0;strokeColor=#D08770;" parent="1" source="SExNB5dA6j3z0pkPh154-11" target="SExNB5dA6j3z0pkPh154-12" edge="1">
          <mxGeometry relative="1" as="geometry" />
        </mxCell>
        <mxCell id="SExNB5dA6j3z0pkPh154-21" style="edgeStyle=orthogonalEdgeStyle;rounded=0;orthogonalLoop=1;jettySize=auto;html=1;exitX=0;exitY=0.25;exitDx=0;exitDy=0;exitPerimeter=0;endArrow=oval;endFill=1;strokeColor=#B48EAD;" parent="1" source="SExNB5dA6j3z0pkPh154-15" edge="1">
          <mxGeometry relative="1" as="geometry">
            <mxPoint x="460" y="500" as="targetPoint" />
          </mxGeometry>
        </mxCell>
        <mxCell id="SExNB5dA6j3z0pkPh154-15" value="" style="verticalLabelPosition=bottom;shadow=0;dashed=0;align=center;html=1;verticalAlign=top;shape=mxgraph.electrical.logic_gates.logic_gate;operation=and;rotation=-180;" parent="1" vertex="1">
          <mxGeometry x="200" y="470" width="72" height="40" as="geometry" />
        </mxCell>
        <mxCell id="SExNB5dA6j3z0pkPh154-16" style="edgeStyle=orthogonalEdgeStyle;rounded=0;orthogonalLoop=1;jettySize=auto;html=1;exitX=1;exitY=0.5;exitDx=0;exitDy=0;exitPerimeter=0;entryX=0;entryY=0.25;entryDx=0;entryDy=0;entryPerimeter=0;endArrow=none;endFill=0;strokeColor=#5e81ac;" parent="1" source="SExNB5dA6j3z0pkPh154-15" target="SExNB5dA6j3z0pkPh154-12" edge="1">
          <mxGeometry relative="1" as="geometry">
            <Array as="points">
              <mxPoint x="167" y="490" />
            </Array>
          </mxGeometry>
        </mxCell>
        <mxCell id="SExNB5dA6j3z0pkPh154-26" style="edgeStyle=orthogonalEdgeStyle;rounded=0;orthogonalLoop=1;jettySize=auto;html=1;exitX=1;exitY=0.5;exitDx=0;exitDy=0;exitPerimeter=0;entryX=0.25;entryY=0;entryDx=0;entryDy=0;endArrow=none;endFill=0;strokeColor=#F0F0F0;" parent="1" source="SExNB5dA6j3z0pkPh154-12" target="SExNB5dA6j3z0pkPh154-6" edge="1">
          <mxGeometry relative="1" as="geometry">
            <mxPoint x="380" y="630" as="targetPoint" />
            <Array as="points">
              <mxPoint x="40" y="440" />
              <mxPoint x="40" y="560" />
              <mxPoint x="340" y="560" />
            </Array>
          </mxGeometry>
        </mxCell>
        <mxCell id="SExNB5dA6j3z0pkPh154-12" value="" style="verticalLabelPosition=bottom;shadow=0;dashed=0;align=center;html=1;verticalAlign=top;shape=mxgraph.electrical.logic_gates.logic_gate;operation=or;rotation=-180;negating=0;strokeOpacity=100;fillOpacity=100;noLabel=0;" parent="1" vertex="1">
          <mxGeometry x="70" y="410" width="97" height="60" as="geometry" />
        </mxCell>
        <mxCell id="SExNB5dA6j3z0pkPh154-19" value="" style="edgeStyle=none;orthogonalLoop=1;jettySize=auto;html=1;rounded=0;endArrow=oval;endFill=1;strokeColor=#BF616A;" parent="1" edge="1">
          <mxGeometry width="80" relative="1" as="geometry">
            <mxPoint x="272" y="480" as="sourcePoint" />
            <mxPoint x="380" y="480" as="targetPoint" />
            <Array as="points" />
          </mxGeometry>
        </mxCell>
        <mxCell id="SExNB5dA6j3z0pkPh154-23" value="$$&lt;br&gt;Ch_2&lt;br&gt;$$" style="text;html=1;align=center;verticalAlign=middle;resizable=0;points=[];autosize=1;strokeColor=none;fillColor=none;fontColor=#d08770;" parent="1" vertex="1">
          <mxGeometry x="172" y="421" width="50" height="60" as="geometry" />
        </mxCell>
        <mxCell id="SExNB5dA6j3z0pkPh154-24" value="$$&lt;br&gt;Ch_3&lt;br&gt;$$" style="text;html=1;align=center;verticalAlign=middle;resizable=0;points=[];autosize=1;strokeColor=none;fillColor=none;fontColor=#5E81AC;" parent="1" vertex="1">
          <mxGeometry x="172" y="470" width="50" height="60" as="geometry" />
        </mxCell>
        <mxCell id="SExNB5dA6j3z0pkPh154-28" value="" style="endArrow=none;html=1;rounded=0;strokeColor=#88C0D0;" parent="1" edge="1">
          <mxGeometry width="50" height="50" relative="1" as="geometry">
            <mxPoint x="380" y="640" as="sourcePoint" />
            <mxPoint x="120" y="580" as="targetPoint" />
            <Array as="points">
              <mxPoint x="380" y="580" />
            </Array>
          </mxGeometry>
        </mxCell>
        <mxCell id="SExNB5dA6j3z0pkPh154-29" value="" style="endArrow=oval;html=1;rounded=0;exitX=0;exitY=0.75;exitDx=0;exitDy=0;exitPerimeter=0;strokeColor=#88C0D0;startArrow=none;startFill=0;endFill=1;" parent="1" edge="1">
          <mxGeometry width="50" height="50" relative="1" as="geometry">
            <mxPoint x="261.83500000000004" y="640.0049999999999" as="sourcePoint" />
            <mxPoint x="262.07" y="580.01" as="targetPoint" />
          </mxGeometry>
        </mxCell>
        <mxCell id="SExNB5dA6j3z0pkPh154-31" value="&lt;font color=&quot;#f0f0f0&quot;&gt;$$&lt;br&gt;C_{in}&lt;br&gt;$$&lt;/font&gt;" style="text;html=1;align=center;verticalAlign=middle;resizable=0;points=[];autosize=1;strokeColor=none;fillColor=none;fontColor=#5E81AC;" parent="1" vertex="1">
          <mxGeometry x="40" y="400" width="60" height="60" as="geometry" />
        </mxCell>
        <mxCell id="SExNB5dA6j3z0pkPh154-32" value="&lt;font&gt;$$&lt;br&gt;0&lt;br&gt;$$&lt;/font&gt;" style="text;html=1;align=center;verticalAlign=middle;resizable=0;points=[];autosize=1;strokeColor=none;fillColor=none;fontColor=#88C0D0;" parent="1" vertex="1">
          <mxGeometry x="85" y="550" width="40" height="60" as="geometry" />
        </mxCell>
        <mxCell id="SExNB5dA6j3z0pkPh154-33" value="" style="rounded=0;whiteSpace=wrap;html=1;fillColor=none;strokeColor=#EA6B66;" parent="1" vertex="1">
          <mxGeometry x="240" y="550" width="160" height="50" as="geometry" />
        </mxCell>
        <mxCell id="SExNB5dA6j3z0pkPh154-35" value="&lt;font color=&quot;#ea6b66&quot;&gt;$$&lt;br&gt;Corr&lt;br&gt;$$&lt;/font&gt;" style="text;html=1;align=center;verticalAlign=middle;resizable=0;points=[];autosize=1;strokeColor=none;fillColor=none;fontColor=#5E81AC;" parent="1" vertex="1">
          <mxGeometry x="232" y="510" width="50" height="60" as="geometry" />
        </mxCell>
        <mxCell id="SExNB5dA6j3z0pkPh154-36" value="" style="endArrow=none;html=1;rounded=0;strokeColor=#F0F0F0;endFill=0;startArrow=classic;startFill=1;" parent="1" edge="1">
          <mxGeometry width="50" height="50" relative="1" as="geometry">
            <mxPoint x="500" y="800" as="sourcePoint" />
            <mxPoint x="499.76" y="720" as="targetPoint" />
          </mxGeometry>
        </mxCell>
        <mxCell id="SExNB5dA6j3z0pkPh154-37" value="" style="endArrow=none;html=1;rounded=0;strokeColor=#F0F0F0;endFill=0;startArrow=classic;startFill=1;" parent="1" edge="1">
          <mxGeometry width="50" height="50" relative="1" as="geometry">
            <mxPoint x="460" y="800" as="sourcePoint" />
            <mxPoint x="459.76" y="720" as="targetPoint" />
          </mxGeometry>
        </mxCell>
        <mxCell id="SExNB5dA6j3z0pkPh154-38" value="" style="endArrow=none;html=1;rounded=0;strokeColor=#F0F0F0;endFill=0;startArrow=classic;startFill=1;" parent="1" edge="1">
          <mxGeometry width="50" height="50" relative="1" as="geometry">
            <mxPoint x="420" y="800" as="sourcePoint" />
            <mxPoint x="419.76" y="720" as="targetPoint" />
          </mxGeometry>
        </mxCell>
        <mxCell id="SExNB5dA6j3z0pkPh154-39" value="" style="endArrow=none;html=1;rounded=0;strokeColor=#F0F0F0;endFill=0;startArrow=classic;startFill=1;" parent="1" edge="1">
          <mxGeometry width="50" height="50" relative="1" as="geometry">
            <mxPoint x="380" y="800" as="sourcePoint" />
            <mxPoint x="379.76" y="720" as="targetPoint" />
          </mxGeometry>
        </mxCell>
        <mxCell id="nFjrBh3C6zd_Su2gBntW-1" value="$$&lt;br&gt;Ch_3&lt;br&gt;$$" style="text;html=1;align=center;verticalAlign=middle;resizable=0;points=[];autosize=1;strokeColor=none;fillColor=none;fontColor=#5E81AC;" parent="1" vertex="1">
          <mxGeometry x="172" y="470" width="50" height="60" as="geometry" />
        </mxCell>
        <mxCell id="nFjrBh3C6zd_Su2gBntW-2" value="$$&lt;br&gt;A2&lt;br&gt;$$" style="text;html=1;align=center;verticalAlign=middle;resizable=0;points=[];autosize=1;strokeColor=none;fillColor=none;fontColor=#F0F0F0;" parent="1" vertex="1">
          <mxGeometry x="216" y="460" width="40" height="60" as="geometry" />
        </mxCell>
        <mxCell id="nFjrBh3C6zd_Su2gBntW-5" value="$$&lt;br&gt;O&lt;br&gt;$$" style="text;html=1;align=center;verticalAlign=middle;resizable=0;points=[];autosize=1;strokeColor=none;fillColor=none;fontColor=#F0F0F0;" parent="1" vertex="1">
          <mxGeometry x="98.5" y="410" width="40" height="60" as="geometry" />
        </mxCell>
        <mxCell id="SExNB5dA6j3z0pkPh154-22" style="edgeStyle=orthogonalEdgeStyle;rounded=0;orthogonalLoop=1;jettySize=auto;html=1;endArrow=oval;endFill=1;strokeColor=#BF616A;exitX=0;exitY=0.75;exitDx=0;exitDy=0;exitPerimeter=0;" parent="1" source="SExNB5dA6j3z0pkPh154-11" edge="1">
          <mxGeometry relative="1" as="geometry">
            <mxPoint x="380" y="430.20000000000005" as="targetPoint" />
            <mxPoint x="270" y="430" as="sourcePoint" />
          </mxGeometry>
        </mxCell>
      </root>
    </mxGraphModel>
  </diagram>
</mxfile>
